<svg width="30" height="30" viewBox="0 0 30 30" fill="none" xmlns="http://www.w3.org/2000/svg">
<g clip-path="url(#clip0)">
<path d="M22.4986 0.00624194L18.6083 0C14.2377 0 11.4132 2.89782 11.4132 7.38296V10.787H7.50172C7.16372 10.787 6.89001 11.061 6.89001 11.399V16.3311C6.89001 16.6691 7.16404 16.9428 7.50172 16.9428H11.4132V29.388C11.4132 29.726 11.6869 29.9997 12.0249 29.9997H17.1284C17.4664 29.9997 17.7401 29.7257 17.7401 29.388V16.9428H22.3135C22.6515 16.9428 22.9252 16.6691 22.9252 16.3311L22.9271 11.399C22.9271 11.2367 22.8625 11.0813 22.748 10.9665C22.6334 10.8516 22.4774 10.787 22.3151 10.787H17.7401V7.90136C17.7401 6.5144 18.0706 5.81031 19.8773 5.81031L22.498 5.80937C22.8357 5.80937 23.1094 5.53535 23.1094 5.19766V0.617952C23.1094 0.280575 22.836 0.00686613 22.4986 0.00624194Z" fill="white"/>
</g>
<defs>
<clipPath id="clip0">
<rect width="30" height="29.9997" fill="white"/>
</clipPath>
</defs>
</svg>
