<svg width="30" height="30" viewBox="0 0 30 30" fill="none" xmlns="http://www.w3.org/2000/svg">
<path d="M23.0769 8.07681C22.4412 8.07681 21.9231 7.55873 21.9231 6.92296V4.61527C21.9231 3.9795 22.4412 3.46143 23.0769 3.46143H25.3846C26.0204 3.46143 26.5385 3.9795 26.5385 4.61527V6.92296C26.5385 7.55873 26.0204 8.07681 25.3846 8.07681H23.0769Z" fill="white"/>
<path d="M15 10.6016C14.1623 10.6016 13.3893 10.8473 12.7235 11.2512C12.9312 11.1866 13.1469 11.1439 13.3743 11.1439C14.6066 11.1439 15.6046 12.1419 15.6046 13.3754C15.6046 14.6054 14.6066 15.6058 13.3743 15.6058C12.1419 15.6058 11.1439 14.6066 11.1439 13.3754C11.1439 13.1458 11.1889 12.93 11.2523 12.7235C10.8462 13.3893 10.6016 14.1623 10.6016 15C10.6016 17.4312 12.5689 19.3996 15.0012 19.3996C17.43 19.3996 19.4008 17.4323 19.4008 15C19.4008 12.5677 17.4289 10.6016 15 10.6016Z" fill="white"/>
<path d="M15.0001 8.07698C18.8227 8.07698 21.9231 11.1762 21.9231 15.0001C21.9231 18.8239 18.8216 21.9231 15.0001 21.9231C11.1774 21.9231 8.07698 18.8239 8.07698 15.0001C8.07698 11.1762 11.1774 8.07698 15.0001 8.07698ZM15.0001 5.76929C9.91044 5.76929 5.76929 9.91044 5.76929 15.0001C5.76929 20.0897 9.91044 24.2308 15.0001 24.2308C20.0897 24.2308 24.2308 20.0897 24.2308 15.0001C24.2308 9.91044 20.0897 5.76929 15.0001 5.76929Z" fill="white"/>
<path d="M24.375 0H5.625C2.51769 0 0 2.51769 0 5.625V24.375C0 27.4823 2.51769 30 5.625 30H24.375C27.4823 30 30 27.4823 30 24.375V5.625C30 2.51769 27.4823 0 24.375 0ZM27.6923 10.3846H20.1496C21.2492 11.6112 21.9231 13.2242 21.9231 15C21.9231 18.8238 18.8215 21.9231 15 21.9231C11.1773 21.9231 8.07692 18.8238 8.07692 15C8.07692 13.2242 8.75077 11.61 9.85038 10.3846H2.30769V5.625C2.30769 3.79615 3.79615 2.30769 5.625 2.30769H24.375C26.205 2.30769 27.6923 3.79615 27.6923 5.625V10.3846Z" fill="white"/>
</svg>
