<svg width="272" height="81" viewBox="0 0 272 81" fill="none" xmlns="http://www.w3.org/2000/svg">
<path d="M32.041 16.709L4.07397 68.7172H11.1208L32.041 31.3155L43.492 53.2254H39.7484L36.8857 58.5369H54.5027L32.041 16.709Z" fill="#2F80ED"/>
<path d="M48.9973 16.709L76.5239 67.8319H69.2568L48.9973 31.3155L29.1781 67.8319L20.3696 68.7172L48.9973 16.709Z" fill="#2F80ED"/>
<path d="M48.3367 61.8564H55.8239L59.7877 68.7171H52.5207L48.3367 61.8564Z" fill="#2F80ED"/>
<path d="M40.2989 0C18.042 0 0 18.132 0 40.5C0 45.993 1.08785 51.2336 3.06095 56.0095L6.45443 49.5494C5.69249 46.6613 5.2851 43.6293 5.2851 40.5C5.2851 21.0666 20.962 5.31148 40.2989 5.31148C59.6358 5.31148 75.3127 21.0666 75.3127 40.5C75.3127 48.8811 72.3971 56.5783 67.5282 62.6223L70.1575 67.7014C76.645 60.5132 80.5978 50.968 80.5978 40.5C80.5978 18.132 62.5558 0 40.2989 0ZM40.2989 75.6885C26.7624 75.6885 15.6813 69.2284 9.85451 57.9283L6.99175 63.2398C14.142 74.5333 25.9917 81 40.2989 81C49.9926 81 58.887 77.5608 65.8391 71.8288L63.3375 66.9976C57.1804 72.4087 49.1228 75.6885 40.2989 75.6885Z" fill="#2F80ED"/>
<path d="M131.013 59.38H126.957L123.713 35.5005L111.976 59.38H110.736L98.8557 35.3102L95.612 59.38H91.6526L96.614 24.28H97.6159L111.357 52.1387L125.004 24.28H126.006L131.013 59.38Z" fill="#2F80ED"/>
<path d="M162.169 47.0089H139.362C139.52 49.8859 140.483 52.1964 142.249 53.9381C144.015 55.6799 146.12 56.5518 148.571 56.5518C152.737 56.5518 155.919 54.4892 158.113 50.3662L161.453 52.0924C159.958 54.8743 158.192 56.9281 156.157 58.2537C154.12 59.5816 151.689 60.2433 148.857 60.2433C144.944 60.2433 141.716 58.8933 139.172 56.1911C136.627 53.4911 135.356 50.2378 135.356 46.4335C135.356 42.6291 136.635 39.3692 139.196 36.6515C141.755 33.9338 144.929 32.575 148.714 32.575C152.5 32.575 155.664 33.863 158.21 36.4346C160.753 39.0085 162.074 42.534 162.169 47.0089ZM157.78 43.5077C157.302 41.2703 156.221 39.5286 154.536 38.2804C152.85 37.0344 150.91 36.4103 148.716 36.4103C144.264 36.4103 141.304 38.7761 139.842 43.5077H157.78Z" fill="#2F80ED"/>
<path d="M190.367 59.3802H186.454V46.9137C186.454 44.0366 186.318 42.078 186.049 41.0401C185.778 40.0021 185.382 39.1213 184.855 38.4021C184.331 37.6828 183.662 37.1472 182.851 36.7953C182.041 36.4435 181.054 36.2686 179.894 36.2686C178.733 36.2686 177.595 36.5563 176.483 37.1317C175.369 37.7071 174.415 38.5061 173.62 39.5285C172.825 40.551 172.277 41.6376 171.975 42.7885C171.671 43.9393 171.521 46.2409 171.521 49.6934V59.3802H167.56V33.2477H171.519V37.1804C174.096 34.1108 177.15 32.5771 180.68 32.5771C182.556 32.5771 184.259 33.064 185.785 34.04C187.311 35.016 188.456 36.3571 189.22 38.0679C189.984 39.7786 190.365 42.4078 190.365 45.9554V59.3802H190.367Z" fill="#2F80ED"/>
<path d="M208.641 36.7001H203.488V55.0181C203.488 55.6886 203.582 56.0981 203.774 56.2397C203.965 56.3835 204.441 56.4566 205.205 56.4566H207.495V59.8604C205.969 60.1171 204.807 60.2432 204.012 60.2432C202.486 60.2432 201.356 59.867 200.625 59.1167C199.894 58.3665 199.528 57.1736 199.528 55.5448V36.7001H195.042V33.2476H199.528V23.417H203.488V33.2476H208.641V36.7001Z" fill="#2F80ED"/>
<path d="M225.194 32.5771C228.946 32.5771 232.135 33.936 234.76 36.6537C237.385 39.3714 238.695 42.6313 238.695 46.4357C238.695 50.24 237.398 53.4933 234.806 56.1933C232.214 58.8955 229.008 60.2455 225.192 60.2455C221.375 60.2455 218.163 58.8955 215.553 56.1933C212.944 53.4933 211.64 50.24 211.64 46.4357C211.64 42.6313 212.952 39.3714 215.577 36.6537C218.204 33.936 221.408 32.5771 225.194 32.5771ZM225.194 56.4544C227.834 56.4544 230.085 55.4873 231.946 53.553C233.806 51.6188 234.736 49.2862 234.736 46.553C234.736 43.8198 233.789 41.4539 231.897 39.4555C230.003 37.4571 227.762 36.459 225.17 36.459C222.578 36.459 220.343 37.4593 218.466 39.4555C216.59 41.4539 215.652 43.8264 215.652 46.5751C215.652 49.3238 216.559 51.6586 218.372 53.5752C220.186 55.4962 222.459 56.4544 225.194 56.4544Z" fill="#2F80ED"/>
<path d="M255.064 33.6306L253.011 36.9879C252.47 36.7002 251.945 36.5563 251.437 36.5563C250.45 36.5563 249.561 37.0432 248.766 38.0192C247.971 38.9952 247.374 40.2722 246.977 41.8545C246.579 43.4369 246.381 46.2896 246.381 50.4127V59.3802H242.373V33.2477H246.381V36.0761C247.176 34.8943 247.979 34.0135 248.79 33.4381C249.6 32.8627 250.523 32.575 251.558 32.575C252.588 32.5772 253.758 32.9291 255.064 33.6306Z" fill="#2F80ED"/>
<path d="M272 36.3151L269.472 38.9532C267.596 37.196 265.878 36.3151 264.319 36.3151C263.333 36.3151 262.507 36.6272 261.837 37.2491C261.17 37.8732 260.835 38.6389 260.835 39.5507C260.835 40.4625 261.21 41.2614 261.956 41.9475C262.703 42.6358 264.031 43.4812 265.94 44.4882C267.849 45.4951 269.32 46.6061 270.353 47.8211C271.386 49.0361 271.903 50.5233 271.903 52.2805C271.903 54.518 271.132 56.4036 269.589 57.9395C268.045 59.4732 266.145 60.2411 263.887 60.2411C260.738 60.2411 258.114 58.8978 256.015 56.2132L258.497 53.4314C260.214 55.4453 261.963 56.4523 263.744 56.4523C264.953 56.4523 265.986 56.0539 266.845 55.2528C267.704 54.4538 268.133 53.5199 268.133 52.4487C268.133 51.3776 267.743 50.4835 266.964 49.7642C266.184 49.045 264.848 48.2062 262.956 47.2457C261.062 46.2874 259.631 45.2251 258.662 44.0566C257.691 42.8903 257.206 41.3566 257.206 39.4533C257.206 37.5523 257.898 35.9301 259.281 34.5867C260.664 33.2433 262.494 32.5728 264.768 32.5728C267.045 32.5772 269.454 33.8232 272 36.3151Z" fill="#2F80ED"/>
</svg>
