<svg width="250" height="51" viewBox="0 0 250 51" fill="none" xmlns="http://www.w3.org/2000/svg">
<path d="M98.8 39L98.76 22.2L90.52 36.04H87.6L79.4 22.56V39H73.32V11H78.68L89.16 28.4L99.48 11H104.8L104.88 39H98.8ZM132.163 28.32C132.163 28.4 132.123 28.96 132.043 30H115.763C116.056 31.3333 116.75 32.3867 117.843 33.16C118.936 33.9333 120.296 34.32 121.923 34.32C123.043 34.32 124.03 34.16 124.883 33.84C125.763 33.4933 126.576 32.96 127.323 32.24L130.643 35.84C128.616 38.16 125.656 39.32 121.763 39.32C119.336 39.32 117.19 38.8533 115.323 37.92C113.456 36.96 112.016 35.64 111.003 33.96C109.99 32.28 109.483 30.3733 109.483 28.24C109.483 26.1333 109.976 24.24 110.963 22.56C111.976 20.8533 113.35 19.5333 115.083 18.6C116.843 17.64 118.803 17.16 120.963 17.16C123.07 17.16 124.976 17.6133 126.683 18.52C128.39 19.4267 129.723 20.7333 130.683 22.44C131.67 24.12 132.163 26.08 132.163 28.32ZM121.003 21.88C119.59 21.88 118.403 22.28 117.443 23.08C116.483 23.88 115.896 24.9733 115.683 26.36H126.283C126.07 25 125.483 23.92 124.523 23.12C123.563 22.2933 122.39 21.88 121.003 21.88ZM149.398 17.16C152.064 17.16 154.211 17.96 155.838 19.56C157.491 21.16 158.318 23.5333 158.318 26.68V39H152.078V27.64C152.078 25.9333 151.704 24.6667 150.958 23.84C150.211 22.9867 149.131 22.56 147.718 22.56C146.144 22.56 144.891 23.0533 143.958 24.04C143.024 25 142.558 26.44 142.558 28.36V39H136.318V17.48H142.278V20C143.104 19.0933 144.131 18.4 145.358 17.92C146.584 17.4133 147.931 17.16 149.398 17.16ZM177.854 37.96C177.24 38.4133 176.48 38.76 175.574 39C174.694 39.2133 173.76 39.32 172.774 39.32C170.214 39.32 168.227 38.6667 166.814 37.36C165.427 36.0533 164.734 34.1333 164.734 31.6V22.76H161.414V17.96H164.734V12.72H170.974V17.96H176.334V22.76H170.974V31.52C170.974 32.4267 171.2 33.1333 171.654 33.64C172.134 34.12 172.8 34.36 173.654 34.36C174.64 34.36 175.48 34.0933 176.174 33.56L177.854 37.96ZM190.933 39.32C188.666 39.32 186.626 38.8533 184.813 37.92C183.026 36.96 181.626 35.64 180.613 33.96C179.599 32.28 179.093 30.3733 179.093 28.24C179.093 26.1067 179.599 24.2 180.613 22.52C181.626 20.84 183.026 19.5333 184.813 18.6C186.626 17.64 188.666 17.16 190.933 17.16C193.199 17.16 195.226 17.64 197.013 18.6C198.799 19.5333 200.199 20.84 201.213 22.52C202.226 24.2 202.733 26.1067 202.733 28.24C202.733 30.3733 202.226 32.28 201.213 33.96C200.199 35.64 198.799 36.96 197.013 37.92C195.226 38.8533 193.199 39.32 190.933 39.32ZM190.933 34.2C192.533 34.2 193.839 33.6667 194.853 32.6C195.893 31.5067 196.413 30.0533 196.413 28.24C196.413 26.4267 195.893 24.9867 194.853 23.92C193.839 22.8267 192.533 22.28 190.933 22.28C189.333 22.28 188.013 22.8267 186.973 23.92C185.933 24.9867 185.413 26.4267 185.413 28.24C185.413 30.0533 185.933 31.5067 186.973 32.6C188.013 33.6667 189.333 34.2 190.933 34.2ZM212.863 20.32C213.61 19.28 214.61 18.4933 215.863 17.96C217.143 17.4267 218.61 17.16 220.263 17.16V22.92C219.57 22.8667 219.103 22.84 218.863 22.84C217.077 22.84 215.677 23.3467 214.663 24.36C213.65 25.3467 213.143 26.84 213.143 28.84V39H206.903V17.48H212.863V20.32ZM231.292 39.32C229.505 39.32 227.759 39.1067 226.052 38.68C224.345 38.2267 222.985 37.6667 221.972 37L224.052 32.52C225.012 33.1333 226.172 33.64 227.532 34.04C228.892 34.4133 230.225 34.6 231.532 34.6C234.172 34.6 235.492 33.9467 235.492 32.64C235.492 32.0267 235.132 31.5867 234.412 31.32C233.692 31.0533 232.585 30.8267 231.092 30.64C229.332 30.3733 227.879 30.0667 226.732 29.72C225.585 29.3733 224.585 28.76 223.732 27.88C222.905 27 222.492 25.7467 222.492 24.12C222.492 22.76 222.879 21.56 223.652 20.52C224.452 19.4533 225.599 18.6267 227.092 18.04C228.612 17.4533 230.399 17.16 232.452 17.16C233.972 17.16 235.479 17.3333 236.972 17.68C238.492 18 239.745 18.4533 240.732 19.04L238.652 23.48C236.759 22.4133 234.692 21.88 232.452 21.88C231.119 21.88 230.119 22.0667 229.452 22.44C228.785 22.8133 228.452 23.2933 228.452 23.88C228.452 24.5467 228.812 25.0133 229.532 25.28C230.252 25.5467 231.399 25.8 232.972 26.04C234.732 26.3333 236.172 26.6533 237.292 27C238.412 27.32 239.385 27.92 240.212 28.8C241.039 29.68 241.452 30.9067 241.452 32.48C241.452 33.8133 241.052 35 240.252 36.04C239.452 37.08 238.279 37.8933 236.732 38.48C235.212 39.04 233.399 39.32 231.292 39.32Z" fill="white"/>
<g clip-path="url(#clip0)">
<path d="M20.4126 10.7092L2.79321 43.3372H7.23275L20.4126 19.8728L27.6269 33.6182H25.2684L23.4648 36.9505H34.5637L20.4126 10.7092Z" fill="white"/>
<path d="M31.0952 10.7092L48.4372 42.7818H43.8589L31.0952 19.8728L18.609 42.7818L13.0596 43.3372L31.0952 10.7092Z" fill="white"/>
<path d="M30.679 39.033H35.396L37.8932 43.3371H33.3149L30.679 39.033Z" fill="white"/>
<path d="M25.6152 0.226562C11.5932 0.226562 0.226562 11.6019 0.226562 25.6347C0.226562 29.0808 0.911916 32.3686 2.15499 35.3648L4.2929 31.312C3.81288 29.5001 3.55622 27.598 3.55622 25.6347C3.55622 13.443 13.4328 3.55878 25.6152 3.55878C37.7976 3.55878 47.6741 13.443 47.6741 25.6347C47.6741 30.8927 45.8373 35.7216 42.7698 39.5134L44.4263 42.6999C48.5135 38.1903 51.0038 32.202 51.0038 25.6347C51.0038 11.6019 39.6372 0.226562 25.6152 0.226562ZM25.6152 47.7107C17.0871 47.7107 10.1059 43.6579 6.43498 36.5686L4.63142 39.9008C9.13617 46.9859 16.6015 51.0429 25.6152 51.0429C31.7223 51.0429 37.3259 48.8853 41.7057 45.2893L40.1297 42.2583C36.2507 45.653 31.1743 47.7107 25.6152 47.7107Z" fill="white"/>
</g>
<defs>
<clipPath id="clip0">
<rect width="51" height="51" fill="white"/>
</clipPath>
</defs>
</svg>
