<svg width="60" height="59" viewBox="0 0 60 59" fill="none" xmlns="http://www.w3.org/2000/svg">
<path fill-rule="evenodd" clip-rule="evenodd" d="M30 56.5417C14.8122 56.5417 2.5 44.4347 2.5 29.5C2.5 14.5653 14.8122 2.45837 30 2.45837C45.1878 2.45837 57.5 14.5653 57.5 29.5C57.5 44.4347 45.1878 56.5417 30 56.5417ZM30 51.625C42.4264 51.625 52.5 41.7193 52.5 29.5C52.5 17.2807 42.4264 7.37504 30 7.37504C17.5736 7.37504 7.5 17.2807 7.5 29.5C7.5 41.7193 17.5736 51.625 30 51.625ZM42.5 27.0417H32.5V14.75H27.5V31.9584H42.5V27.0417Z" fill="#2F80ED"/>
</svg>
