<svg width="60" height="59" viewBox="0 0 60 59" fill="none" xmlns="http://www.w3.org/2000/svg">
<path fill-rule="evenodd" clip-rule="evenodd" d="M40 39.1243V44.25C40 49.6808 35.5228 54.0833 30 54.0833C24.4772 54.0833 20 49.6808 20 44.25V39.1243C20 38.6443 19.8271 38.1205 19.4187 37.431C19.1562 36.988 18.8129 36.5014 18.295 35.8276C18.2808 35.8091 18.2167 35.727 18.1215 35.6049L18.1209 35.6041L18.1208 35.6041C17.775 35.1609 17.0196 34.1928 16.7408 33.8224C13.9161 30.0708 12.5 26.7217 12.5 22.125C12.5 12.6211 20.335 4.91663 30 4.91663C39.665 4.91663 47.5 12.6211 47.5 22.125C47.5 26.8223 46.0646 30.2985 43.264 34.0429C42.9671 34.4398 42.2183 35.3967 41.7748 35.9636C41.6012 36.1853 41.4744 36.3474 41.4397 36.3928C40.8738 37.1331 40.5223 37.658 40.2937 38.1138C40.0868 38.5262 40 38.8449 40 39.1243ZM35.1092 37.955C35.2367 37.275 35.4739 36.6078 35.8096 35.9386C36.2042 35.1519 36.7061 34.4025 37.4429 33.4386C37.4935 33.3724 37.6565 33.164 37.8671 32.8948C38.3173 32.3192 38.9849 31.4657 39.236 31.1299C41.4576 28.1596 42.5 25.6352 42.5 22.125C42.5 15.3365 36.9036 9.83329 30 9.83329C23.0964 9.83329 17.5 15.3365 17.5 22.125C17.5 25.5139 18.5167 27.9183 20.7592 30.8968C21 31.2166 21.68 32.0884 22.0472 32.5592L22.0473 32.5594L22.0479 32.56C22.1723 32.7195 22.2606 32.8328 22.2837 32.8628C22.9119 33.68 23.3563 34.3099 23.7392 34.9564C24.3355 35.9632 24.7315 36.9446 24.903 37.9622C26.4609 38.8817 28.145 39.3333 30 39.3333C31.8599 39.3333 33.5479 38.8793 35.1092 37.955ZM35 44.25V43.4201C33.4188 43.972 31.7484 44.25 30 44.25C28.2517 44.25 26.5812 43.972 25 43.4201V44.25C25 46.9654 27.2386 49.1666 30 49.1666C32.7614 49.1666 35 46.9654 35 44.25Z" fill="#2F80ED"/>
</svg>
