<svg width="60" height="59" viewBox="0 0 60 59" fill="none" xmlns="http://www.w3.org/2000/svg">
<path fill-rule="evenodd" clip-rule="evenodd" d="M57.5 46.7083C57.5 49.4237 55.2614 51.625 52.5 51.625H22.5C19.7386 51.625 17.5 49.4237 17.5 46.7083V12.2917C17.5 9.57627 19.7386 7.375 22.5 7.375H52.5C55.2614 7.375 57.5 9.57627 57.5 12.2917V46.7083ZM15 49.1667C12.2386 49.1667 10 46.9654 10 44.25V14.75C10 12.0346 12.2386 9.83333 15 9.83333V49.1667ZM2.5 41.7917C2.5 44.5071 4.73858 46.7083 7.5 46.7083V12.2917C4.73858 12.2917 2.5 14.4929 2.5 17.2083V41.7917ZM52.5 46.7083V12.2917H22.5V46.7083H52.5ZM42.5 29.5L32.5 22.125V36.875L42.5 29.5Z" fill="#2F80ED"/>
</svg>
